<svg width="87" height="28" viewBox="0 0 87 28" fill="none" xmlns="http://www.w3.org/2000/svg">
<path fill-rule="evenodd" clip-rule="evenodd" d="M13.4756 11.7594C13.2195 14.4199 10.9776 16.5 8.25 16.5C7.67922 16.5 7.12971 16.4089 6.61522 16.2405C6.87137 13.58 9.11318 11.4999 11.8408 11.4999C12.4116 11.4999 12.9611 11.591 13.4756 11.7594ZM13.2473 9.63619C12.7923 9.54674 12.322 9.49986 11.8408 9.49986C8.37782 9.49986 5.48191 11.9278 4.7625 15.1743C3.68118 14.2127 3 12.8109 3 11.25C3 8.35051 5.35051 6 8.25 6C10.5865 6 12.5664 7.52628 13.2473 9.63619ZM15.458 10.4653C15.0668 6.83029 11.9889 4 8.25 4C4.24594 4 1 7.24594 1 11.25C1 13.9367 2.46147 16.2821 4.6328 17.5346C5.02402 21.1696 8.1019 23.9999 11.8408 23.9999C15.8449 23.9999 19.0908 20.7539 19.0908 16.7499C19.0908 14.0631 17.6294 11.7177 15.458 10.4653ZM15.3283 12.8255C14.6089 16.072 11.713 18.5 8.25 18.5C7.76879 18.5 7.29852 18.4531 6.84353 18.3637C7.52438 20.4736 9.50436 21.9999 11.8408 21.9999C14.7403 21.9999 17.0908 19.6494 17.0908 16.7499C17.0908 15.189 16.4096 13.7872 15.3283 12.8255Z" fill="#FF008F"/>
<path d="M58.5699 19.2498V7.01904H60.9214V19.2498H58.5699Z" fill="#0C111D"/>
<path d="M25 19.2498V7.40813H27.5544V19.2498H25Z" fill="#0C111D"/>
<path d="M28.8443 19.2498V10.7238H31.2126V11.908C31.6863 11.079 32.6336 10.5885 33.8009 10.5885C35.7294 10.5885 36.9812 11.9756 36.9812 13.938V19.2498H34.6129V14.4624C34.6129 13.4305 33.9531 12.6861 32.972 12.6861C31.9401 12.6861 31.2126 13.4812 31.2126 14.5808V19.2498H28.8443Z" fill="#0C111D"/>
<path d="M41.2169 8.20321H38.8655V10.7238H37.2245V12.6861H38.8655V16.154C38.8655 18.1333 40.1342 19.2498 42.0965 19.2498H43.5006V17.2705H42.418C41.6567 17.2705 41.2169 16.8815 41.2169 16.0525V12.6861H43.5006V10.7238H41.2169V8.20321Z" fill="#0C111D"/>
<path fill-rule="evenodd" clip-rule="evenodd" d="M49.646 16.357H51.9467C51.6083 18.201 49.9843 19.3851 47.8867 19.3851C44.9939 19.3851 43.5052 17.1183 43.5052 14.9699C43.5052 12.8045 44.8247 10.5885 47.7175 10.5885C50.7287 10.5885 51.9298 12.8045 51.9298 14.75C51.9298 15.0714 51.9128 15.3251 51.8959 15.5112H45.7721C45.9413 16.7123 46.7025 17.4566 47.8867 17.4566C48.834 17.4566 49.4599 17.0845 49.646 16.357ZM47.7175 12.314C46.6517 12.314 46.0089 12.8384 45.8059 14.0225H49.5783C49.5107 13.0752 48.8509 12.314 47.7175 12.314Z" fill="#0C111D"/>
<path d="M56.6128 12.6861H58.0168V10.7238H57.0526C56.0207 10.7238 55.3778 11.079 54.9211 12.1448V10.7238H52.5528V19.2498H54.9211V15.1052C54.9211 13.6504 55.4455 12.6861 56.6128 12.6861Z" fill="#0C111D"/>
<path fill-rule="evenodd" clip-rule="evenodd" d="M61.6629 14.9868C61.6629 17.5243 63.5407 19.3851 66.1627 19.3851C67.5088 19.3851 68.6586 18.8948 69.459 18.0743C70.2305 18.8893 71.3463 19.3851 72.6903 19.3851C74.9064 19.3851 76.6657 17.9641 76.9195 16.0695H74.5173C74.3482 16.8307 73.6546 17.3551 72.7918 17.3551C71.5062 17.3551 70.7449 16.374 70.7449 14.9868C70.7449 13.5996 71.4892 12.6015 72.758 12.6015C73.6207 12.6015 74.3482 13.1598 74.4835 13.921H76.8518C76.6996 11.9418 74.9233 10.5885 72.6903 10.5885C71.3463 10.5885 70.2305 11.0843 69.459 11.8993C68.6586 11.0788 67.5088 10.5885 66.1627 10.5885C63.5407 10.5885 61.6629 12.4493 61.6629 14.9868ZM68.2929 14.8898C68.2545 13.5221 67.4024 12.6015 66.1627 12.6015C64.894 12.6015 64.0312 13.5658 64.0312 14.9868C64.0312 16.3909 64.894 17.3551 66.1627 17.3551C67.4023 17.3551 68.2543 16.4348 68.2929 15.0831C68.2923 15.0511 68.292 15.019 68.292 14.9868C68.292 14.9544 68.2923 14.922 68.2929 14.8898Z" fill="#0C111D"/>
<path d="M80.8896 15.6465L83.3087 19.2498H86.1507L82.4798 14.0733L85.88 10.7238H82.9027L79.9423 13.6335V7.01904H77.574V19.2498H79.9423V16.577L80.8896 15.6465Z" fill="#0C111D"/>
</svg>
